<?xml version="1.0" encoding="UTF-8" ?>
<!DOCTYPE svg PUBLIC "-//W3C//DTD SVG 1.1//EN" "http://www.w3.org/Graphics/SVG/1.1/DTD/svg11.dtd">
<svg width="150pt" height="150pt" viewBox="0 0 150 150" version="1.1" xmlns="http://www.w3.org/2000/svg">
<path fill="#ffffff" d=" M 0.00 0.00 L 150.00 0.00 L 150.00 150.00 L 47.81 150.00 C 45.94 140.45 46.24 129.88 51.48 121.39 C 56.03 114.13 62.60 108.27 69.88 103.83 C 78.32 99.16 87.84 96.93 96.32 92.35 C 100.67 89.95 104.55 86.10 105.67 81.11 C 106.69 76.29 106.95 70.90 104.58 66.42 C 102.79 63.57 99.99 61.36 96.75 60.44 C 84.42 56.87 69.79 64.51 66.21 76.96 C 64.56 81.31 65.54 86.14 63.74 90.45 C 59.96 102.18 48.96 109.66 38.02 114.05 C 25.94 118.95 12.91 120.85 0.00 121.97 L 0.00 0.00 Z" />
<path fill="#193441" d=" M 117.15 36.45 C 123.54 34.33 131.36 39.06 131.95 45.88 C 132.92 52.10 127.31 58.42 121.03 58.16 C 115.16 58.67 109.73 53.78 109.14 48.02 C 108.64 42.92 112.18 37.77 117.15 36.45 Z" />
<path fill="#193441" d=" M 66.21 76.96 C 69.79 64.51 84.42 56.87 96.75 60.44 C 99.99 61.36 102.79 63.57 104.58 66.42 C 106.95 70.90 106.69 76.29 105.67 81.11 C 104.55 86.10 100.67 89.95 96.32 92.35 C 87.84 96.93 78.32 99.16 69.88 103.83 C 62.60 108.27 56.03 114.13 51.48 121.39 C 46.24 129.88 45.94 140.45 47.81 150.00 L 0.00 150.00 L 0.00 121.97 C 12.91 120.85 25.94 118.95 38.02 114.05 C 48.96 109.66 59.96 102.18 63.74 90.45 C 65.54 86.14 64.56 81.31 66.21 76.96 Z" />
</svg>
